<svg width="43" height="310" viewBox="0 0 43 310" fill="none" xmlns="http://www.w3.org/2000/svg">
<path d="M42 308.432C42 308.768 41.9067 309.011 41.72 309.16C41.5333 309.272 41.2907 309.272 40.992 309.16L1.568 292.976C1.12 292.789 0.895998 292.453 0.895998 291.968V284.912C0.895998 284.427 1.12 284.091 1.568 283.904L40.992 267.72C41.0667 267.683 41.1973 267.664 41.384 267.664C41.5707 267.664 41.72 267.739 41.832 267.888C41.944 268 42 268.168 42 268.392V277.8C42 278.323 41.7573 278.659 41.272 278.808L34.944 281.048V296L41.272 298.24C41.7573 298.389 42 298.725 42 299.248V308.432ZM26.432 293.032V284.072L13.776 288.608L26.432 293.032ZM42 262.034C42 262.632 41.7013 262.93 41.104 262.93H1.792C1.19466 262.93 0.895998 262.632 0.895998 262.034V246.858C0.895998 241.856 1.848 238.178 3.752 235.826C5.656 233.474 8.288 232.298 11.648 232.298C13.6267 232.298 15.3813 232.802 16.912 233.81C18.4053 234.781 19.544 236.2 20.328 238.066C21.0373 235.49 22.2507 233.549 23.968 232.242C25.648 230.898 27.6453 230.226 29.96 230.226C33.88 230.226 36.8667 231.589 38.92 234.314C40.9733 237.002 42 241.24 42 247.026V262.034ZM9.296 252.794H17.248V247.138C17.248 245.72 16.912 244.6 16.24 243.778C15.568 242.92 14.5787 242.49 13.272 242.49C11.9653 242.49 10.976 242.92 10.304 243.778C9.632 244.6 9.296 245.72 9.296 247.138V252.794ZM24.92 252.794H33.6V246.41C33.6 244.693 33.2267 243.349 32.48 242.378C31.7333 241.408 30.6507 240.922 29.232 240.922C27.8133 240.922 26.7493 241.408 26.04 242.378C25.2933 243.349 24.92 244.693 24.92 246.41V252.794ZM42.784 204.82C42.784 208.852 41.888 212.492 40.096 215.74C38.304 218.95 35.8027 221.47 32.592 223.3C29.344 225.129 25.6293 226.044 21.448 226.044C17.2667 226.044 13.5707 225.129 10.36 223.3C7.112 221.47 4.592 218.95 2.8 215.74C1.008 212.492 0.111999 208.852 0.111999 204.82C0.111999 200.788 1.008 197.166 2.8 193.956C4.592 190.708 7.112 188.169 10.36 186.34C13.5707 184.51 17.2667 183.596 21.448 183.596C25.6293 183.596 29.344 184.51 32.592 186.34C35.8027 188.169 38.304 190.708 40.096 193.956C41.888 197.166 42.784 200.788 42.784 204.82ZM32.648 204.82C32.648 202.766 32.1813 200.956 31.248 199.388C30.2773 197.82 28.952 196.606 27.272 195.748C25.5547 194.852 23.6133 194.404 21.448 194.404C19.2827 194.404 17.36 194.852 15.68 195.748C13.9627 196.606 12.6373 197.82 11.704 199.388C10.7333 200.956 10.248 202.766 10.248 204.82C10.248 206.873 10.7333 208.684 11.704 210.252C12.6373 211.82 13.9627 213.052 15.68 213.948C17.36 214.806 19.2827 215.236 21.448 215.236C23.6133 215.236 25.5547 214.806 27.272 213.948C28.952 213.052 30.2773 211.82 31.248 210.252C32.1813 208.684 32.648 206.873 32.648 204.82ZM42.784 159.433C42.784 162.532 42.2053 165.425 41.048 168.113C39.8533 170.764 37.9493 172.948 35.336 174.665C32.7227 176.345 29.3627 177.185 25.256 177.185H1.792C1.53066 177.185 1.32533 177.111 1.176 176.961C0.989332 176.812 0.895998 176.607 0.895998 176.345V167.609C0.895998 167.348 0.989332 167.143 1.176 166.993C1.32533 166.844 1.53066 166.769 1.792 166.769H23.184C26.32 166.769 28.6907 166.116 30.296 164.809C31.864 163.503 32.648 161.711 32.648 159.433C32.648 157.193 31.864 155.42 30.296 154.113C28.6907 152.807 26.32 152.154 23.184 152.154H1.792C1.53066 152.154 1.32533 152.079 1.176 151.929C0.989332 151.743 0.895998 151.519 0.895998 151.257V142.577C0.895998 141.98 1.19466 141.681 1.792 141.681H25.256C29.3627 141.681 32.7227 142.54 35.336 144.257C37.9493 145.937 39.8533 148.121 41.048 150.809C42.2053 153.46 42.784 156.335 42.784 159.433ZM42 122.833C42 123.43 41.7013 123.729 41.104 123.729H10.696V135.545C10.696 136.105 10.416 136.385 9.856 136.385H1.792C1.19466 136.385 0.895998 136.105 0.895998 135.545V101.497C0.895998 100.9 1.19466 100.601 1.792 100.601H9.856C10.1173 100.601 10.3227 100.694 10.472 100.881C10.6213 101.03 10.696 101.236 10.696 101.497V113.257H41.104C41.7013 113.257 42 113.556 42 114.153V122.833ZM42.784 54.1054C42.784 57.204 42.2053 60.0974 41.048 62.7854C39.8533 65.436 37.9493 67.62 35.336 69.3374C32.7227 71.0174 29.3627 71.8574 25.256 71.8574H1.792C1.53066 71.8574 1.32533 71.7827 1.176 71.6334C0.989332 71.484 0.895998 71.2787 0.895998 71.0174V62.2814C0.895998 62.02 0.989332 61.8147 1.176 61.6654C1.32533 61.516 1.53066 61.4414 1.792 61.4414H23.184C26.32 61.4414 28.6907 60.788 30.296 59.4814C31.864 58.1747 32.648 56.3827 32.648 54.1054C32.648 51.8654 31.864 50.092 30.296 48.7854C28.6907 47.4787 26.32 46.8254 23.184 46.8254H1.792C1.53066 46.8254 1.32533 46.7507 1.176 46.6014C0.989332 46.4147 0.895998 46.1907 0.895998 45.9294V37.2494C0.895998 36.652 1.19466 36.3534 1.792 36.3534H25.256C29.3627 36.3534 32.7227 37.212 35.336 38.9294C37.9493 40.6094 39.8533 42.7934 41.048 45.4814C42.2053 48.132 42.784 51.0067 42.784 54.1054ZM42.784 15.489C42.784 19.409 41.8507 22.7503 39.984 25.513C38.08 28.2383 35.3733 30.1797 31.864 31.337C31.7893 31.3743 31.6773 31.393 31.528 31.393C31.1173 31.393 30.856 31.169 30.744 30.721L28.84 22.937L28.784 22.657C28.784 22.2837 28.9893 22.0037 29.4 21.817C30.856 21.2197 31.92 20.3983 32.592 19.353C33.264 18.2703 33.6 16.889 33.6 15.209C33.6 13.8277 33.376 12.7263 32.928 11.905C32.4427 11.0837 31.7333 10.673 30.8 10.673C29.8293 10.673 29.0453 11.0837 28.448 11.905C27.8133 12.689 27.16 14.0143 26.488 15.881L24.976 20.137C23.856 23.385 22.2507 25.905 20.16 27.697C18.0693 29.489 15.5493 30.385 12.6 30.385C10.2107 30.385 8.064 29.7317 6.16 28.425C4.256 27.1183 2.78133 25.345 1.736 23.105C0.653332 20.865 0.111999 18.3823 0.111999 15.657C0.111999 12.1103 0.951999 9.06767 2.632 6.529C4.312 3.953 6.85066 2.105 10.248 0.985C10.3227 0.947665 10.4533 0.928998 10.64 0.928998C11.0133 0.928998 11.256 1.13433 11.368 1.545L13.552 9.721C13.5893 9.79567 13.608 9.90767 13.608 10.057C13.608 10.393 13.4027 10.6543 12.992 10.841C11.6107 11.4383 10.6587 12.1477 10.136 12.969C9.576 13.753 9.296 14.705 9.296 15.825C9.296 16.9823 9.53866 17.9343 10.024 18.681C10.5093 19.3903 11.1813 19.745 12.04 19.745C12.8987 19.745 13.664 19.3157 14.336 18.457C14.9707 17.5983 15.6427 16.1237 16.352 14.033L17.36 10.953C18.6293 7.21967 20.272 4.47567 22.288 2.721C24.304 0.966331 26.9733 0.0889983 30.296 0.0889983C32.6853 0.0889983 34.832 0.742332 36.736 2.049C38.64 3.35567 40.1333 5.185 41.216 7.537C42.2613 9.85167 42.784 12.5023 42.784 15.489Z" fill="#424874"/>
</svg>
