<svg width="66" height="66" viewBox="0 0 66 66" fill="none" xmlns="http://www.w3.org/2000/svg">
<g filter="url(#filter0_d_60_3450)">
<circle cx="33" cy="29" r="29" fill="white"/>
</g>
<path d="M22.7964 12C22.3353 12 22 12.3353 22 12.7964V44.7784C22 45.2395 22.3353 45.5749 22.7964 45.5749H42.2036C42.6647 45.5749 43 45.2395 43 44.7784V12.7964C43 12.3353 42.6647 12 42.2036 12L22.7964 12ZM26.1916 16.1916H38.7665V37.1497H26.1916V16.1916ZM32.479 39.2455C33.6527 39.2455 34.5748 40.1677 34.5748 41.3413C34.5748 42.515 33.6527 43.4371 32.479 43.4371C31.3054 43.4371 30.3832 42.515 30.3832 41.3413C30.3832 40.1677 31.3054 39.2455 32.479 39.2455Z" fill="#424784"/>
<defs>
<filter id="filter0_d_60_3450" x="0" y="0" width="66" height="66" filterUnits="userSpaceOnUse" color-interpolation-filters="sRGB">
<feFlood flood-opacity="0" result="BackgroundImageFix"/>
<feColorMatrix in="SourceAlpha" type="matrix" values="0 0 0 0 0 0 0 0 0 0 0 0 0 0 0 0 0 0 127 0" result="hardAlpha"/>
<feOffset dy="4"/>
<feGaussianBlur stdDeviation="2"/>
<feComposite in2="hardAlpha" operator="out"/>
<feColorMatrix type="matrix" values="0 0 0 0 0 0 0 0 0 0 0 0 0 0 0 0 0 0 0.25 0"/>
<feBlend mode="normal" in2="BackgroundImageFix" result="effect1_dropShadow_60_3450"/>
<feBlend mode="normal" in="SourceGraphic" in2="effect1_dropShadow_60_3450" result="shape"/>
</filter>
</defs>
</svg>
